<?xml version="1.0" encoding="utf-8"?>
<svg viewBox="-7.7257 8.168 506.9477 481.798" width="506.9477" height="481.798" xmlns="http://www.w3.org/2000/svg" xmlns:bx="https://boxy-svg.com">
  <path style="fill: rgb(216, 216, 216); stroke: rgb(0, 0, 0);" d="M 384.723 489.966 L 385.346 442.984 C 369.835 397.193 186.07 437.756 90.074 379.2 C 49.998 351.069 43.95 275.885 90.385 213.364 C 165.04 176.804 428.087 247.591 418.637 272.791 L 415.215 428.983 L 415.214 489.033 L 384.723 489.966 Z" transform="matrix(1, 0, 0, 1, 0, 3.552713678800501e-15)"/>
  <ellipse style="fill: rgb(216, 216, 216); stroke: rgb(0, 0, 0);" cx="167.86" cy="304.994" rx="52.583" ry="43.093" transform="matrix(1, 0, 0, 1, 0, 3.552713678800501e-15)"/>
  <path style="stroke: rgb(0, 0, 0); fill: rgba(255, 255, 255, 0.84);" d="M 357.342 271.546 C 273.768 239.804 147.694 223.984 112.165 238.877 C 83.423 250.925 83.343 317.583 96.298 343.731 C 114.702 364.331 161.177 378.181 184.039 377.645 L 280.18 379.512 C 311.899 380.824 388.119 394.98 383.789 403.158 L 385.968 306.394 C 379.915 292.124 386.155 290.261 357.343 271.235" transform="matrix(1, 0, 0, 1, 0, 3.552713678800501e-15)"/>
  <path style="fill: rgb(216, 216, 216); stroke: rgb(0, 0, 0);" d="M 156.036 141.49 C 152.985 139.66 170.818 99.208 175.949 102.287 C 212.622 93.017 242.007 97.523 272.713 101.042 C 320.208 107.171 369.392 112.414 372.589 106.02 L 490.199 19.524 L 499.222 36.014 C 499.222 36.014 402.714 121.108 381.612 127.801 C 360.51 134.494 315.932 129.639 307.871 127.489 C 232.53 119.881 210.086 109.347 186.839 121.888 L 179.994 143.667" transform="matrix(1, 0, 0, 1, 0, 3.552713678800501e-15)"/>
  <ellipse style="stroke: rgb(0, 0, 0); paint-order: stroke; fill: rgba(0, 0, 0, 0.133);" cx="-447.573" cy="415.37" rx="9.643" ry="9.489" transform="matrix(-1, 0, 0, 1, 0, 3.552713678800501e-15)"/>
  <ellipse style="stroke: rgb(0, 0, 0); paint-order: stroke; fill: rgba(0, 0, 0, 0.133);" cx="-448.062" cy="387.979" rx="9.643" ry="9.489" transform="matrix(-1, 0, 0, 1, 0, 3.552713678800501e-15)"/>
  <ellipse style="stroke: rgb(0, 0, 0); paint-order: stroke; fill: rgba(0, 0, 0, 0.133);" cx="-447.573" cy="362.088" rx="9.643" ry="9.489" transform="matrix(-1, 0, 0, 1, 0, 3.552713678800501e-15)"/>
  <ellipse style="stroke: rgb(0, 0, 0); paint-order: stroke; fill: rgba(0, 0, 0, 0.133);" cx="-447.129" cy="334.707" rx="9.643" ry="9.489" transform="matrix(-1, 0, 0, 1, 0, 3.552713678800501e-15)"/>
  <ellipse style="stroke: rgb(0, 0, 0); paint-order: stroke; fill: rgba(0, 0, 0, 0.133);" cx="-446.573" cy="304.839" rx="9.643" ry="9.489" transform="matrix(-1, 0, 0, 1, 0, 3.552713678800501e-15)"/>
  <ellipse style="stroke: rgb(0, 0, 0); paint-order: stroke; fill: rgba(0, 0, 0, 0.133);" cx="-444.751" cy="273.725" rx="9.643" ry="9.489" transform="matrix(-1, 0, 0, 1, 0, 3.552713678800501e-15)"/>
  <ellipse style="stroke: rgb(0, 0, 0); paint-order: stroke; fill: rgba(0, 0, 0, 0.133);" cx="-440.751" cy="241.366" rx="9.643" ry="9.489" transform="matrix(-1, 0, 0, 1, 0, 3.552713678800501e-15)"/>
  <ellipse style="fill: rgba(0, 0, 0, 0.133); stroke: rgb(0, 0, 0); paint-order: fill;" cx="-330.896" cy="191.273" rx="9.643" ry="9.489" transform="matrix(-1, 0, 0, 1, 0, 3.552713678800501e-15)"/>
  <ellipse style="stroke: rgb(0, 0, 0); paint-order: stroke; fill: rgba(0, 0, 0, 0.133);" cx="-284.536" cy="190.028" rx="9.643" ry="9.489" transform="matrix(-1, 0, 0, 1, 0, 3.552713678800501e-15)"/>
  <ellipse style="stroke: rgb(0, 0, 0); paint-order: stroke; fill: rgba(0, 0, 0, 0.133);" cx="-198.662" cy="181.938" rx="9.643" ry="9.489" transform="matrix(-1, 0, 0, 1, 0, 3.552713678800501e-15)"/>
  <ellipse style="stroke: rgb(0, 0, 0); paint-order: stroke; fill: rgba(0, 0, 0, 0.133);" cx="-240.043" cy="185.05" rx="9.643" ry="9.489" transform="matrix(-1, 0, 0, 1, 0, 3.552713678800501e-15)"/>
  <ellipse style="stroke: rgb(0, 0, 0); paint-order: stroke; fill: rgba(0, 0, 0, 0.133);" cx="-39.981" cy="223.009" rx="9.643" ry="9.489" transform="matrix(-1, 0, 0, 1, 0, 3.552713678800501e-15)"/>
  <ellipse style="stroke: rgb(0, 0, 0); paint-order: stroke; fill: rgba(0, 0, 0, 0.133);" cx="-81.985" cy="433.338" rx="9.643" ry="9.489" transform="matrix(-1, 0, 0, 1, 0, 3.552713678800501e-15)"/>
  <ellipse style="stroke: rgb(0, 0, 0); paint-order: stroke; fill: rgba(0, 0, 0, 0.133);" cx="-132.39" cy="76.462" rx="9.643" ry="9.489" transform="matrix(-1, 0, 0, 1, 0, 3.552713678800501e-15)"/>
  <ellipse style="stroke: rgb(0, 0, 0); paint-order: stroke; fill: rgba(0, 0, 0, 0.133);" cx="-162.57" cy="68.374" rx="9.643" ry="9.489" transform="matrix(-1, 0, 0, 1, 0, 3.552713678800501e-15)"/>
  <ellipse style="stroke: rgb(0, 0, 0); paint-order: stroke; fill: rgba(0, 0, 0, 0.133);" cx="-193.373" cy="65.261" rx="9.643" ry="9.489" transform="matrix(-1, 0, 0, 1, 0, 3.552713678800501e-15)"/>
  <ellipse style="stroke: rgb(0, 0, 0); paint-order: stroke; fill: rgba(0, 0, 0, 0.133);" cx="-219.509" cy="66.817" rx="9.643" ry="9.489" transform="matrix(-1, 0, 0, 1, 0, 3.552713678800501e-15)"/>
  <ellipse style="stroke: rgb(0, 0, 0); paint-order: stroke; fill: rgba(0, 0, 0, 0.133);" cx="-256.533" cy="69.928" rx="9.643" ry="9.489" transform="matrix(-1, 0, 0, 1, 0, 3.552713678800501e-15)"/>
  <ellipse style="stroke: rgb(0, 0, 0); paint-order: stroke; fill: rgba(0, 0, 0, 0.133);" cx="-286.714" cy="75.218" rx="9.643" ry="9.489" transform="matrix(-1, 0, 0, 1, 0, 3.552713678800501e-15)"/>
  <ellipse style="stroke: rgb(0, 0, 0); paint-order: stroke; fill: rgba(0, 0, 0, 0.133);" cx="-318.45" cy="82.685" rx="9.643" ry="9.489" transform="matrix(-1, 0, 0, 1, 0, 3.552713678800501e-15)"/>
  <ellipse style="stroke: rgb(0, 0, 0); paint-order: stroke; fill: rgba(0, 0, 0, 0.133);" cx="-348.009" cy="85.485" rx="9.643" ry="9.489" transform="matrix(-1, 0, 0, 1, 0, 3.552713678800501e-15)"/>
  <path style="paint-order: stroke; fill: rgb(153, 194, 212); stroke: rgba(0, 3, 7, 0.573);" d="M 495.178 115.977 C 480.51 115.977 455.645 136.207 441.661 140.868 C 433.082 143.728 423.424 143.148 414.281 144.291 C 405.993 145.327 395.034 151.17 386.901 154.558 C 366.171 163.196 341.209 161.566 319.695 157.981 C 310.971 156.527 302.022 155.501 293.248 154.247 C 290.271 153.822 285.926 155.253 283.292 153.936 C 280.313 152.446 274.437 154.44 271.157 153.936 C 258.524 151.992 245.407 154.306 232.887 152.38 C 201.79 147.596 173.715 142.692 140.79 146.157 C 130.28 147.264 119.161 144.463 108.432 146.157 C 98.927 147.658 84.441 154.886 75.762 159.225 C 60.072 167.071 49.485 156.086 41.849 171.359 C 39.771 175.514 20.687 175.725 19.134 180.383 C 17.341 185.763 4.618 201.017 2.956 204.341 C 2.935 204.383 -8.951 217.678 -7.622 218.342 C -5.485 219.411 4.255 225.47 5.445 224.876 C 12.676 221.26 16.291 202.295 23.491 197.495 C 26.25 195.656 28.043 193.311 30.025 190.339 C 33.371 185.32 42.67 185.643 46.826 182.872 C 56.143 176.661 67.828 170.504 78.563 165.137 C 84.84 161.998 93.526 162.945 99.72 159.848 C 104.796 157.31 112.324 160.106 117.766 158.292 C 138.435 151.402 170.647 152.376 191.195 159.225 C 196.771 161.084 203.844 158.109 209.552 159.536 C 224.53 163.281 240.505 159.705 255.912 161.714 C 287.549 165.841 320.195 174 351.742 169.493 C 365.103 167.584 381.195 172.786 394.368 169.493 C 400.867 167.868 407.015 164.828 413.659 162.337 C 435.001 154.333 463.485 150.48 480.865 137.446 C 486.889 132.928 496.111 130.888 496.111 124.067" transform="matrix(1, 0, 0, 1, 0, 3.552713678800501e-15)"/>
  <ellipse style="fill: rgba(185, 205, 222, 0.45); stroke: rgb(150, 169, 204);" cx="167.704" cy="305.149" rx="41.226" ry="30.18" transform="matrix(1, 0, 0, 1, 0, 3.552713678800501e-15)"/>
  <ellipse style="stroke: rgb(0, 0, 0); paint-order: stroke; fill: rgba(0, 0, 0, 0.133);" cx="-221.686" cy="133.401" rx="9.643" ry="9.489" transform="matrix(-1, 0, 0, 1, 0, 3.552713678800501e-15)"/>
  <ellipse style="stroke: rgb(0, 0, 0); paint-order: stroke; fill: rgba(0, 0, 0, 0.133);" cx="-252.489" cy="136.512" rx="9.643" ry="9.489" transform="matrix(-1, 0, 0, 1, 0, 3.552713678800501e-15)"/>
  <ellipse style="stroke: rgb(0, 0, 0); paint-order: stroke; fill: rgba(0, 0, 0, 0.133);" cx="-283.292" cy="139.312" rx="9.643" ry="9.489" transform="matrix(-1, 0, 0, 1, 0, 3.552713678800501e-15)"/>
  <ellipse style="stroke: rgb(0, 0, 0); paint-order: stroke; fill: rgba(0, 0, 0, 0.133);" cx="-317.206" cy="143.046" rx="9.643" ry="9.489" transform="matrix(-1, 0, 0, 1, 0, 3.552713678800501e-15)"/>
  <ellipse style="stroke: rgb(0, 0, 0); paint-order: stroke; fill: rgba(0, 0, 0, 0.133);" cx="-351.12" cy="144.291" rx="9.643" ry="9.489" transform="matrix(-1, 0, 0, 1, 0, 3.552713678800501e-15)"/>
  <ellipse style="stroke: rgb(0, 0, 0); paint-order: stroke; fill: rgba(0, 0, 0, 0.133);" cx="-403.08" cy="128.734" rx="9.643" ry="9.489" transform="matrix(-1, 0, 0, 1, 0, 3.552713678800501e-15)"/>
  <ellipse style="stroke: rgb(0, 0, 0); paint-order: stroke; fill: rgba(0, 0, 0, 0.133);" cx="-428.282" cy="110.999" rx="9.643" ry="9.489" transform="matrix(-1, 0, 0, 1, 0, 3.552713678800501e-15)"/>
  <ellipse style="stroke: rgb(0, 0, 0); paint-order: stroke; fill: rgba(0, 0, 0, 0.133);" cx="-464.996" cy="79.574" rx="9.643" ry="9.489" transform="matrix(-1, 0, 0, 1, 0, 3.552713678800501e-15)"/>
  <ellipse style="stroke: rgb(0, 0, 0); paint-order: stroke; fill: rgba(0, 0, 0, 0.133);" cx="-489.265" cy="60.284" rx="9.643" ry="9.489" transform="matrix(-1, 0, 0, 1, 0, 3.552713678800501e-15)"/>
  <ellipse style="stroke: rgb(0, 0, 0); paint-order: stroke; fill: rgba(0, 0, 0, 0.133);" cx="-485.843" cy="82.685" rx="9.643" ry="9.489" transform="matrix(-1, 0, 0, 1, 0, 3.552713678800501e-15)"/>
  <ellipse style="stroke: rgb(0, 0, 0); paint-order: stroke; fill: rgba(0, 0, 0, 0.133);" cx="-450.684" cy="17.657" rx="9.643" ry="9.489" transform="matrix(-1, 0, 0, 1, 0, 3.552713678800501e-15)"/>
  <path d="M 419.882 181.939 L 434.817 207.764 L 404.947 207.764 L 419.882 181.939 Z" style="stroke: rgb(0, 0, 0); fill: rgb(88, 188, 77);" transform="matrix(1, 0, 0, 1, 0, 3.552713678800501e-15)" bx:shape="triangle 404.947 181.939 29.87 25.825 0.5 0 1@81d69259"/>
  <path d="M 447.262 71.951 L 462.197 97.776 L 432.327 97.776 L 447.262 71.951 Z" style="stroke: rgb(0, 0, 0); fill: rgb(88, 188, 77);" transform="matrix(1, 0, 0, 1, 0, 3.552713678800501e-15)" bx:shape="triangle 432.327 71.951 29.87 25.825 0.5 0 1@2a508ec7"/>
  <path d="M 159.599 259.542 H 187.495 L 187.495 250.887 L 203.544 262.427 L 187.495 273.968 L 187.495 265.313 H 159.599 V 259.542 Z" style="stroke: rgb(0, 0, 0); fill: rgb(255, 254, 254);" transform="matrix(-0.820962965488434, -0.5709809660911561, 0.5709809660911561, -0.820962965488434, 378.81088539072033, 737.2103326410825)" bx:shape="arrow 159.599 250.887 43.945 23.08 5.771 16.048 0 1@3da9a6d2"/>
  <path style="fill: rgb(216, 216, 216); stroke: rgb(0, 0, 0);" d="M 236.622 99.487 C 236.622 93.754 235.753 67.258 233.51 62.772 C 231.624 59 223.223 41.586 220.753 37.881 C 217.18 32.521 177.725 28.888 172.838 24.815 C 166.845 19.821 149.264 21.541 132.701 19.836 C 131.229 19.684 138.301 11.992 138.301 11.435 C 138.301 11.343 176.144 15.194 176.571 15.479 C 183.653 20.2 223.419 27.169 226.042 29.792 C 229.493 33.243 235.704 54.405 238.177 59.35 C 239.381 61.759 244.711 97.57 244.711 100.731" transform="matrix(1, 0, 0, 1, 0, 3.552713678800501e-15)"/>
  <path style="fill: rgb(216, 216, 216); stroke: rgb(0, 0, 0);" d="M 122.744 207.14 C 128.443 197.166 139.63 184.703 142.968 173.227 C 146.864 159.835 154.571 139.423 155.414 139.001 C 156.549 138.434 180.305 141.179 180.305 141.179 C 180.305 141.179 177.295 163.691 172.527 173.227 C 171.134 176.011 161.867 204.651 158.836 204.651" transform="matrix(1, 0, 0, 1, 0, 3.552713678800501e-15)"/>
  <path d="M 59.426 136.996 H 75.166 L 75.166 127.663 L 95.298 140.107 L 75.166 152.55 L 75.166 143.217 H 59.426 V 136.996 Z" style="stroke: rgb(0, 0, 0); fill: rgb(255, 253, 253);" transform="matrix(0.6504320502281189, -0.7595650553703308, 0.7595650553703308, 0.6504320502281189, -15.79264652574544, 169.63961918383555)" bx:shape="arrow 59.426 127.663 35.872 24.887 6.221 20.132 0 1@87ace2c4"/>
</svg>